<?xml version="1.0" standalone="no"?>
<!DOCTYPE svg PUBLIC "-//W3C//DTD SVG 20010904//EN"
 "http://www.w3.org/TR/2001/REC-SVG-20010904/DTD/svg10.dtd">
<svg version="1.0" xmlns="http://www.w3.org/2000/svg"
 width="16.000000pt" height="16.000000pt" viewBox="0 0 16.000000 16.000000"
 preserveAspectRatio="xMidYMid meet">
<metadata>
Created by potrace 1.11, written by Peter Selinger 2001-2013
</metadata>
<g transform="translate(0.000000,16.000000) scale(0.006154,-0.006154)"
fill="#000000" stroke="none">
<path d="M1076 2194 c-160 -21 -334 -66 -449 -117 -31 -15 -60 -26 -62 -27 -3
0 -26 -10 -53 -23 -132 -64 -303 -179 -392 -263 -25 -23 -57 -52 -72 -64 -16
-12 -28 -27 -28 -35 0 -17 196 -215 214 -215 12 0 33 16 126 100 92 83 299
201 436 250 79 28 236 67 304 76 73 10 320 11 392 1 125 -16 319 -72 427 -124
56 -26 221 -121 231 -132 3 -4 30 -25 60 -48 30 -23 74 -60 98 -82 23 -23 49
-41 57 -41 18 0 215 194 215 211 0 9 -38 48 -117 119 -232 210 -593 370 -938
415 -93 13 -349 12 -449 -1z"/>
<path d="M1238 1715 c-2 -2 -37 -6 -78 -9 -69 -6 -115 -14 -180 -31 -14 -3
-29 -7 -35 -9 -95 -23 -268 -103 -372 -173 -87 -59 -203 -161 -203 -179 0 -16
197 -214 213 -214 7 0 33 20 59 45 27 25 50 45 53 45 3 0 25 15 50 34 82 63
233 127 370 157 77 16 292 16 370 -1 183 -39 347 -120 470 -233 28 -26 56 -46
63 -47 17 0 212 196 212 213 0 28 -150 151 -276 226 -74 43 -234 115 -234 104
0 -3 -6 -1 -13 5 -7 6 -28 14 -47 17 -18 3 -37 8 -41 11 -10 6 -101 23 -159
30 -50 6 -218 12 -222 9z"/>
<path d="M1225 1219 c-136 -13 -268 -60 -377 -133 -68 -45 -128 -102 -128
-121 0 -15 195 -215 209 -215 4 0 16 8 27 18 127 114 287 160 446 127 59 -13
156 -56 191 -84 10 -9 31 -26 45 -38 15 -13 30 -23 34 -23 18 0 208 198 208
217 0 11 -15 32 -32 46 -18 13 -46 36 -62 50 -44 38 -172 102 -251 126 -109
32 -203 41 -310 30z"/>
<path d="M1230 693 c-37 -12 -45 -14 -48 -13 -5 2 -76 -52 -84 -64 -4 -6 -8
-14 -8 -18 0 -11 199 -208 210 -208 13 0 210 196 210 209 0 18 -43 52 -95 77
-48 23 -142 32 -185 17z"/>
</g>
</svg>
